<svg class="niklasosowitz-brandmark-subline" xmlns="http://www.w3.org/2000/svg" viewBox="0 0 2861.53 139.04">
    <g>
        <path class="brandmark-color" d="M172.24,0h-2.77c-.76,0-1.38.56-1.38,1.33-.03,34.73-2.08,118.85-161.95-.79C5.69.2,5.12,0,4.55,0H1.39c-.77,0-1.39.62-1.39,1.39v119.2c0,.78.63,1.41,1.41,1.41h2.69c.73,0,1.32-.54,1.32-1.27.02-34.69,1.98-118.99,161.96.74.45.34,1.01.53,1.57.53h3.17c.77,0,1.39-.62,1.39-1.39V1.27c0-.7-.57-1.27-1.27-1.27Z"/>
        <path class="brandmark-color" d="M2861.53,46.15v-7.99h-21.01v-19.03h-9.26v19.03h-14.65v7.99h14.65v35.71c0,3.35.05,6.33.16,8.92.11,2.61.78,5.17,1.99,7.7,1.52,3.05,3.75,5.29,6.69,6.73,2.95,1.45,6.29,2.25,10.02,2.41,3.75.18,7.54-.15,11.4-.94v-8.19c-4.91.82-9.03.94-12.34.38-3.32-.54-5.75-2.23-7.27-5.08-.8-1.47-1.23-3.17-1.31-5.09-.05-1.94-.09-4.33-.09-7.21v-35.33h21.01Z"/>
        <path class="brandmark-color" d="M2798.98,72.47c-3.61-1.78-8.56-3.46-14.85-5.08-5.38-1.34-9.52-2.59-12.4-3.73-2.9-1.14-4.91-2.36-6-3.64-1.11-1.3-1.65-2.85-1.65-4.68,0-3.24,1.52-5.85,4.57-7.83,3.05-1.96,7-2.88,11.85-2.76,5.17.07,9.43,1.31,12.8,3.64,3.35,2.36,5.35,5.53,5.98,9.55l9.52-1.72c-.45-3.97-1.94-7.47-4.44-10.46-2.48-3.01-5.78-5.35-9.86-7.02s-8.7-2.5-13.87-2.5-9.68.82-13.58,2.45c-3.88,1.61-6.92,3.9-9.14,6.85-2.19,2.94-3.3,6.34-3.3,10.24,0,3.21.74,5.93,2.23,8.16,1.47,2.21,3.97,4.17,7.49,5.86,3.5,1.7,8.38,3.39,14.59,5.08,5.78,1.58,10.15,2.92,13.07,4.06,2.92,1.14,4.86,2.39,5.8,3.72.96,1.34,1.43,3.06,1.43,5.17,0,3.77-1.5,6.74-4.51,8.92-2.99,2.18-7.11,3.26-12.31,3.26s-9.79-1.14-13.41-3.44c-3.61-2.32-5.93-5.42-6.94-9.3l-9.52,1.58c1.18,6.18,4.37,11,9.55,14.47,5.17,3.48,11.78,5.2,19.81,5.2,8.43,0,15.03-1.85,19.83-5.55s7.2-8.79,7.2-15.26c0-3.55-.76-6.53-2.28-8.94-1.52-2.41-4.08-4.51-7.67-6.29Z"/>
        <rect class="brandmark-color" x="2726.72" y="38.16" width="9.32" height="68.52"/>
        <rect class="brandmark-color" x="2726.72" y="14.69" width="9.32" height="10.46"/>
        <path class="brandmark-color" d="M2689.65,19.13h-9.26v19.03h-14.65v7.99h14.65v35.71c0,3.35.05,6.33.16,8.92.11,2.61.78,5.17,1.99,7.7,1.52,3.05,3.75,5.29,6.71,6.73,2.94,1.45,6.27,2.25,10.02,2.41,3.73.18,7.54-.15,11.38-.94v-8.19c-4.91.82-9.03.94-12.34.38-3.32-.54-5.75-2.23-7.27-5.08-.8-1.47-1.23-3.17-1.29-5.09-.07-1.94-.11-4.33-.11-7.21v-35.33h21.01v-7.99h-21.01v-19.03Z"/>
        <path class="brandmark-color" d="M2653.44,37.62c-2.41.14-4.8.63-7.18,1.47-2.36.82-4.44,2.01-6.22,3.57-1.43,1.11-2.76,2.52-3.99,4.22-.49.68-.93,1.39-1.34,2.12v-10.84h-8.38v68.52h9.34v-34.21c0-2.7.18-5.44.56-8.21.38-2.77,1.14-5.38,2.28-7.87,1.14-2.46,2.86-4.6,5.15-6.38,2.5-2.03,5.22-3.21,8.18-3.55,2.97-.33,5.69-.18,8.19.45v-8.75c-1.99-.51-4.19-.69-6.6-.54Z"/>
        <path class="brandmark-color" d="M2569.82,15.32l-31.47,91.36h9.7l7.63-22.15h40.58l7.69,22.15h9.7l-31.47-91.36h-12.36ZM2558.7,75.77l17.21-49.93,17.32,49.93h-34.53Z"/>
        <rect class="brandmark-color" x="2488.43" y="13.42" width="9.32" height="93.26"/>
        <path class="brandmark-color" d="M2467.36,49.96c-1.83-4.44-4.93-7.83-9.3-10.18-4.39-2.34-9.7-3.52-15.95-3.52-7.58,0-13.74,1.69-18.48,5.08-4.73,3.37-7.88,8.13-9.44,14.26l9.06,2.67c1.31-4.57,3.59-7.91,6.82-10.03,3.24-2.1,7.21-3.17,11.91-3.17,6.8,0,11.58,1.63,14.34,4.89,2.53,2.99,3.85,7.49,3.93,13.48-2.23.31-4.68.63-7.34.95-4.04.49-8.16,1.05-12.36,1.73-4.21.65-8.05,1.39-11.51,2.24-3.43.89-6.46,2.18-9.05,3.86-2.61,1.71-4.66,3.86-6.16,6.51-1.51,2.65-2.25,5.82-2.25,9.55s.87,7,2.61,10.08c1.72,3.1,4.33,5.57,7.83,7.44,3.48,1.84,7.81,2.79,12.98,2.79,6.85,0,12.73-1.54,17.64-4.64,3.44-2.18,6.26-5.04,8.43-8.6v11.33h8.32v-42.58c0-2.53-.13-5.02-.38-7.48-.26-2.45-.82-4.68-1.65-6.66ZM2460.05,75.25c-.03,2.63-.31,5.06-.81,7.25-.6,3.43-1.89,6.51-3.88,9.25-2,2.72-4.61,4.85-7.87,6.43-3.26,1.56-7.07,2.34-11.42,2.34-3.68,0-6.63-.62-8.85-1.83-2.23-1.23-3.82-2.77-4.82-4.64-.99-1.85-1.48-3.79-1.48-5.77,0-2.46.58-4.51,1.74-6.16,1.16-1.65,2.64-2.97,4.47-3.97,1.82-.98,3.7-1.76,5.64-2.3,2.88-.76,6.11-1.41,9.68-1.98,3.57-.54,7.22-1.03,10.91-1.45,2.35-.27,4.6-.54,6.74-.81-.01,1.03-.03,2.24-.05,3.64Z"/>
        <path class="brandmark-color" d="M2379.61,19.13h-9.26v19.03h-14.65v7.99h14.65v35.71c0,3.35.05,6.33.16,8.92.11,2.61.76,5.17,1.99,7.7,1.52,3.05,3.75,5.29,6.69,6.73,2.94,1.45,6.29,2.25,10.02,2.41,3.75.18,7.54-.15,11.4-.94v-8.19c-4.91.82-9.03.94-12.34.38-3.32-.54-5.75-2.23-7.27-5.08-.8-1.47-1.23-3.17-1.31-5.09-.05-1.94-.09-4.33-.09-7.21v-35.33h21.01v-7.99h-21.01v-19.03Z"/>
        <rect class="brandmark-color" x="2333.69" y="38.16" width="9.32" height="68.52"/>
        <rect class="brandmark-color" x="2333.69" y="14.69" width="9.32" height="10.46"/>
        <path class="brandmark-color" d="M2305.07,47.61c-1.84-2.62-4.04-4.84-6.6-6.66-4.41-3.13-9.83-4.69-16.24-4.69s-11.64,1.58-16.12,4.75c-4.49,3.17-7.92,7.49-10.31,12.94-2.4,5.46-3.59,11.6-3.59,18.4s1.21,13.02,3.62,18.47c2.41,5.46,5.88,9.77,10.41,12.98,4.51,3.19,9.97,4.79,16.37,4.79s11.62-1.6,15.98-4.79c2.03-1.5,3.83-3.23,5.39-5.22v7.02c.03,5.38-.64,9.86-2.03,13.45-1.4,3.6-3.63,6.32-6.69,8.15-3.06,1.85-7.07,2.76-12.02,2.76-3.61,0-7.12-.84-10.57-2.5-3.44-1.67-6.12-4.41-8.03-8.21l-8.43,4.69c1.94,3.55,4.35,6.44,7.24,8.67,2.86,2.21,6.01,3.84,9.4,4.87,3.41,1.03,6.87,1.56,10.39,1.56,5.58,0,10.41-.82,14.48-2.41,4.1-1.61,7.4-4.06,9.9-7.36,2.52-3.3,4.19-7.5,4.99-12.63.29-1.73.5-3.5.59-5.3.11-1.79.17-3.66.17-5.62V38.16h-8.3v9.45ZM2302.71,86.54c-1.56,4.16-3.93,7.44-7.11,9.79-3.17,2.38-7.19,3.56-12.05,3.56s-8.76-1.2-11.93-3.61-5.55-5.71-7.14-9.86c-1.58-4.17-2.38-8.87-2.38-14.07s.78-9.81,2.32-13.96c1.55-4.13,3.92-7.41,7.15-9.82,3.21-2.41,7.27-3.63,12.18-3.63s8.74,1.16,11.89,3.5c3.15,2.32,5.51,5.55,7.07,9.68,1.56,4.12,2.36,8.87,2.36,14.23s-.8,10.03-2.36,14.19Z"/>
        <rect class="brandmark-color" x="2226.4" y="38.16" width="9.32" height="68.52"/>
        <rect class="brandmark-color" x="2226.4" y="14.69" width="9.32" height="10.46"/>
        <path class="brandmark-color" d="M2195.49,23.63c-4.64-4.19-10.44-6.77-17.39-7.75-2.15-.29-4.4-.45-6.74-.5-2.36-.04-4.02-.06-4.98-.06h-27.74v91.36h27.74c.88,0,2.53-.03,4.94-.09,2.42-.07,4.68-.23,6.78-.49,6.95-.96,12.75-3.55,17.39-7.74,4.66-4.18,8.14-9.51,10.48-15.98,2.32-6.48,3.48-13.6,3.48-21.38s-1.16-14.92-3.48-21.39c-2.34-6.47-5.82-11.8-10.48-15.98ZM2197.26,77.79c-1.52,5.09-3.91,9.33-7.19,12.71-3.28,3.39-7.58,5.54-12.91,6.47-1.45.31-3.17.5-5.17.61-2.01.09-3.89.15-5.61.15h-18.1V24.26h18.1c1.65,0,3.49.05,5.54.16,2.05.11,3.79.31,5.24.6,5.28.94,9.57,3.06,12.87,6.42,3.3,3.33,5.71,7.56,7.23,12.69,1.53,5.11,2.29,10.73,2.29,16.87s-.76,11.68-2.29,16.79Z"/>
        <path class="brandmark-color" d="M2089.53,84.6c.26-2.12.39-4.84.39-8.19v-14.01h-8.81l.05,13.38c0,1.1-.02,2.21-.05,3.33-.04,1.13-.15,2.27-.33,3.46l-28.93-26.84c-1.18-1.09-2.34-2.16-3.48-3.19-1.14-1.05-2.18-2.07-3.12-3.08-1.59-1.96-2.83-3.76-3.68-5.42-.83-1.69-1.27-3.81-1.27-6.38,0-3.01.64-5.64,1.91-7.87,1.26-2.25,3.17-4.01,5.71-5.28,2.91-1.39,6.18-2.08,9.77-2.08,2.12,0,4.22.25,6.32.76,2.09.51,3.94,1.4,5.55,2.66,2.07,1.56,3.55,3.49,4.44,5.77l9.01-2.67c-.67-1.81-1.61-3.55-2.79-5.22-1.18-1.68-2.56-3.13-4.14-4.35-2.32-2.03-5.13-3.51-8.42-4.47-3.3-.95-6.68-1.44-10.1-1.44-2.23,0-4.5.2-6.74.62-2.27.4-4.48,1.09-6.64,2.05-4.22,1.9-7.54,4.8-9.93,8.7-2.4,3.88-3.59,8.18-3.59,12.87,0,4.11.83,7.56,2.52,10.39,1.67,2.81,4.08,5.85,7.25,9.15-1.65.73-3.25,1.6-4.79,2.61-1.54,1.02-2.92,2.29-4.15,3.81-2.06,2.45-3.59,5.25-4.57,8.43-.97,3.17-1.43,6.36-1.39,9.59.13,3.37.74,6.58,1.83,9.6,1.1,3.03,2.79,5.77,5.07,8.22,2.92,3.13,6.55,5.43,10.9,6.88,4.33,1.47,9.03,2.2,14.1,2.2,2.63,0,5.2-.18,7.74-.55,2.54-.36,4.95-1.05,7.23-2.06,2.13-.8,4.25-1.92,6.39-3.36,2.13-1.45,3.89-3.06,5.29-4.89l10.1,9.52,6.14-6.53-11.8-10.86c.43-1.39.76-3.15,1.01-5.26ZM2074.69,93.96c-1.09,1.03-2.76,2.14-5,3.33-1.78.93-3.65,1.54-5.59,1.83-1.94.31-4.13.46-6.54.46-3.43,0-6.8-.53-10.15-1.6-3.34-1.05-6-2.73-8-5.07-1.39-1.53-2.43-3.27-3.13-5.22-.69-1.98-1.09-4.12-1.18-6.46,0-2.19.31-4.29.89-6.27.6-1.99,1.5-3.75,2.73-5.27,1.11-1.31,2.42-2.43,3.97-3.39,1.55-.95,3.19-1.71,4.97-2.25l29.69,27.15c-.67.8-1.56,1.73-2.66,2.76Z"/>
        <path class="brandmark-color" d="M1981.5,37.62c-2.41.14-4.8.63-7.18,1.47-2.36.82-4.42,2.01-6.2,3.57-1.45,1.11-2.77,2.52-4.01,4.22-.48.67-.92,1.38-1.32,2.1v-10.82h-8.39v68.52h9.34v-34.21c0-2.7.2-5.44.58-8.21s1.14-5.38,2.28-7.87c1.14-2.46,2.85-4.6,5.13-6.38,2.5-2.03,5.22-3.21,8.19-3.55,2.95-.33,5.67-.18,8.18.45v-8.75c-1.99-.51-4.19-.69-6.6-.54Z"/>
        <path class="brandmark-color" d="M1924.91,40.92c-4.79-3.1-10.55-4.66-17.31-4.66s-12.33,1.47-17.17,4.44c-4.84,2.96-8.59,7.16-11.26,12.62-2.67,5.46-4.01,11.93-4.01,19.42s1.36,13.54,4.06,18.91c2.7,5.38,6.51,9.53,11.38,12.51,4.89,2.95,10.68,4.44,17.37,4.44s12.58-1.65,17.85-4.91c5.26-3.28,9.25-7.9,11.96-13.87l-8.7-3.37c-2.12,4.28-5,7.54-8.66,9.81-3.66,2.27-7.94,3.39-12.83,3.39-7.2,0-12.74-2.38-16.66-7.12-3.51-4.28-5.44-10.11-5.8-17.49h53.98c.22-8.03-.91-14.95-3.35-20.74-2.46-5.8-6.07-10.24-10.86-13.36ZM1890.94,51.99c3.92-4.79,9.55-7.18,16.91-7.18s12.34,2.27,16.01,6.8c3.01,3.71,4.83,8.94,5.47,15.61h-43.99c.64-6.35,2.5-11.45,5.6-15.23Z"/>
        <path class="brandmark-color" d="M1849.86,41.01c-4.5-3.17-9.86-4.75-16.12-4.75s-11.85,1.56-16.24,4.69c-2.56,1.82-4.76,4.05-6.6,6.66v-9.45h-8.38v98.97h9.39v-38.64c1.58,2.01,3.4,3.79,5.45,5.3,4.36,3.19,9.68,4.79,15.99,4.79s11.84-1.6,16.37-4.79c4.52-3.21,8-7.52,10.41-12.98,2.41-5.45,3.6-11.62,3.6-18.47s-1.19-12.94-3.59-18.4c-2.37-5.45-5.81-9.77-10.29-12.94ZM1851.47,86.42c-1.59,4.15-3.97,7.45-7.14,9.86s-7.14,3.61-11.93,3.61-8.88-1.18-12.05-3.56c-3.17-2.35-5.55-5.63-7.11-9.79-1.54-4.1-2.32-8.78-2.34-13.98v-.41c.02-5.27.8-9.96,2.34-14.02,1.56-4.13,3.94-7.36,7.07-9.68,3.16-2.34,7.13-3.5,11.91-3.5s8.96,1.22,12.15,3.63,5.56,5.69,7.14,9.82c1.56,4.15,2.34,8.81,2.34,13.96s-.8,9.9-2.38,14.07Z"/>
        <path class="brandmark-color" d="M1772.42,40.86c-4.84-3.08-10.7-4.6-17.55-4.6s-12.43,1.5-17.29,4.53c-4.84,3.03-8.57,7.25-11.18,12.65-2.63,5.42-3.94,11.73-3.94,18.91s1.29,13.32,3.86,18.78c2.58,5.46,6.29,9.73,11.11,12.82,4.83,3.1,10.63,4.64,17.44,4.64s12.58-1.53,17.46-4.57c4.86-3.05,8.57-7.29,11.17-12.73,2.57-5.43,3.86-11.74,3.86-18.94s-1.27-13.3-3.85-18.74c-2.55-5.44-6.25-9.68-11.09-12.75ZM1771.88,92.05c-3.72,5.06-9.39,7.58-17.01,7.58s-12.99-2.48-16.8-7.45c-3.81-4.96-5.71-11.58-5.71-19.83,0-5.33.81-10.02,2.43-14.1,1.63-4.1,4.11-7.29,7.43-9.59,3.32-2.3,7.54-3.46,12.65-3.46,7.58,0,13.24,2.46,16.97,7.36,3.75,4.91,5.62,11.51,5.62,19.79s-1.87,14.65-5.58,19.7Z"/>
        <rect class="brandmark-color" x="1696.65" y="13.42" width="9.32" height="93.26"/>
        <path class="brandmark-color" d="M1665.87,40.92c-4.79-3.1-10.55-4.66-17.33-4.66s-12.31,1.47-17.15,4.44c-4.86,2.96-8.61,7.16-11.28,12.62-2.66,5.46-3.99,11.93-3.99,19.42s1.34,13.54,4.06,18.91c2.7,5.38,6.51,9.53,11.38,12.51,4.89,2.95,10.68,4.44,17.35,4.44s12.6-1.65,17.87-4.91c5.26-3.28,9.24-7.9,11.95-13.87l-8.68-3.37c-2.12,4.28-5,7.54-8.66,9.81-3.66,2.27-7.94,3.39-12.85,3.39-7.18,0-12.74-2.38-16.64-7.12-3.51-4.28-5.44-10.11-5.8-17.49h53.98c.2-8.03-.91-14.95-3.37-20.74-2.45-5.8-6.07-10.24-10.84-13.36ZM1631.9,51.99c3.9-4.79,9.53-7.18,16.89-7.18s12.36,2.27,16.02,6.8c3.01,3.71,4.81,8.94,5.47,15.61h-43.99c.64-6.35,2.5-11.45,5.6-15.23Z"/>
        <polygon class="brandmark-color" points="1580.1 94.5 1559.85 38.16 1550.4 38.16 1575.27 106.68 1584.92 106.68 1609.79 38.16 1600.2 38.16 1580.1 94.5"/>
        <path class="brandmark-color" d="M1529.78,40.92c-4.77-3.1-10.55-4.66-17.31-4.66s-12.33,1.47-17.17,4.44c-4.84,2.96-8.59,7.16-11.26,12.62-2.66,5.46-4.01,11.93-4.01,19.42s1.36,13.54,4.06,18.91c2.72,5.38,6.51,9.53,11.4,12.51,4.88,2.95,10.66,4.44,17.35,4.44s12.6-1.65,17.85-4.91c5.27-3.28,9.24-7.9,11.96-13.87l-8.7-3.37c-2.1,4.28-5,7.54-8.65,9.81-3.66,2.27-7.96,3.39-12.85,3.39-7.2,0-12.74-2.38-16.66-7.12-3.51-4.28-5.44-10.11-5.8-17.49h53.98c.22-8.03-.91-14.95-3.35-20.74-2.47-5.8-6.07-10.24-10.86-13.36ZM1495.81,51.99c3.92-4.79,9.55-7.18,16.91-7.18s12.36,2.27,16.02,6.8c3,3.71,4.81,8.94,5.46,15.61h-43.99c.64-6.35,2.5-11.45,5.6-15.23Z"/>
        <path class="brandmark-color" d="M1454.22,23.63c-4.66-4.19-10.44-6.77-17.39-7.75-2.15-.29-4.4-.45-6.76-.5-2.34-.04-4-.06-4.98-.06h-27.72v91.36h27.72c.89,0,2.53-.03,4.95-.09,2.41-.07,4.67-.23,6.79-.49,6.95-.96,12.73-3.55,17.39-7.74,4.64-4.18,8.14-9.51,10.46-15.98,2.33-6.48,3.5-13.6,3.5-21.38s-1.17-14.92-3.5-21.39c-2.32-6.47-5.82-11.8-10.46-15.98ZM1455.99,77.79c-1.52,5.09-3.93,9.33-7.19,12.71-3.28,3.39-7.6,5.54-12.93,6.47-1.43.31-3.15.5-5.16.61-2.02.09-3.88.15-5.62.15h-18.08V24.26h18.08c1.65,0,3.5.05,5.56.16,2.05.11,3.79.31,5.22.6,5.3.94,9.59,3.06,12.89,6.42,3.3,3.33,5.71,7.56,7.23,12.69,1.53,5.11,2.29,10.73,2.29,16.87s-.76,11.68-2.29,16.79Z"/>
        <polygon class="brandmark-color" points="1319.01 106.68 1328.6 106.68 1352.96 15.32 1343.37 15.32 1319.01 106.68"/>
        <path class="brandmark-color" d="M1273.71,37.62c-2.41.14-4.79.63-7.16,1.47-2.38.82-4.44,2.01-6.22,3.57-1.43,1.11-2.77,2.52-4.01,4.22-.48.68-.91,1.39-1.32,2.11v-10.83h-8.38v68.52h9.32v-34.21c0-2.7.2-5.44.58-8.21s1.14-5.38,2.28-7.87c1.14-2.46,2.85-4.6,5.13-6.38,2.5-2.03,5.24-3.21,8.19-3.55,2.95-.33,5.69-.18,8.18.45v-8.75c-1.98-.51-4.19-.69-6.6-.54Z"/>
        <path class="brandmark-color" d="M1216.46,40.86c-4.84-3.08-10.69-4.6-17.54-4.6s-12.46,1.5-17.3,4.53c-4.84,3.03-8.57,7.25-11.18,12.65-2.63,5.42-3.94,11.73-3.94,18.91s1.29,13.32,3.87,18.78c2.57,5.46,6.29,9.73,11.11,12.82,4.82,3.1,10.62,4.64,17.44,4.64s12.58-1.53,17.45-4.57c4.86-3.05,8.58-7.29,11.17-12.73,2.57-5.43,3.86-11.74,3.86-18.94s-1.29-13.3-3.84-18.74c-2.56-5.44-6.26-9.68-11.1-12.75ZM1215.92,92.05c-3.72,5.06-9.39,7.58-17,7.58s-13-2.48-16.81-7.45c-3.8-4.96-5.71-11.58-5.71-19.83,0-5.33.8-10.02,2.43-14.1,1.63-4.1,4.12-7.29,7.43-9.59,3.32-2.3,7.54-3.46,12.66-3.46,7.57,0,13.23,2.46,16.96,7.36,3.75,4.91,5.62,11.51,5.62,19.79s-1.87,14.65-5.58,19.7Z"/>
        <path class="brandmark-color" d="M1137.05,19.13h-9.26v19.03h-14.65v7.99h14.65v35.71c0,3.35.05,6.33.16,8.92.11,2.61.78,5.17,1.99,7.7,1.52,3.05,3.77,5.29,6.71,6.73,2.94,1.45,6.27,2.25,10.02,2.41,3.73.18,7.54-.15,11.38-.94v-8.19c-4.91.82-9.03.94-12.34.38-3.32-.54-5.75-2.23-7.27-5.08-.8-1.47-1.23-3.17-1.29-5.09-.07-1.94-.11-4.33-.11-7.21v-35.33h21.01v-7.99h-21.01v-19.03Z"/>
        <path class="brandmark-color" d="M1065.18,48.66c3.3-2.3,7.47-3.46,12.51-3.46,4.48,0,8.47,1.14,11.95,3.41,3.5,2.25,6.04,5.44,7.65,9.54l9.14-2.92c-1.9-5.87-5.42-10.51-10.57-13.88-5.13-3.39-11.17-5.08-18.11-5.08s-12.6,1.5-17.38,4.53c-4.79,3.03-8.45,7.25-10.99,12.69-2.54,5.44-3.84,11.75-3.92,18.94.07,7.05,1.36,13.31,3.82,18.74,2.48,5.44,6.11,9.7,10.88,12.78,4.79,3.1,10.62,4.64,17.53,4.64s12.65-1.59,17.57-4.79c4.91-3.21,8.63-7.85,11.17-13.94l-9.39-2.79c-1.69,4.12-4.17,7.23-7.45,9.37-3.28,2.12-7.25,3.19-11.89,3.19-7.38,0-12.91-2.48-16.64-7.45-3.72-4.97-5.62-11.57-5.69-19.76.04-5.33.85-10.04,2.47-14.16,1.61-4.1,4.06-7.31,7.36-9.61Z"/>
        <path class="brandmark-color" d="M1019.75,40.92c-4.79-3.1-10.55-4.66-17.31-4.66s-12.33,1.47-17.17,4.44c-4.84,2.96-8.59,7.16-11.26,12.62-2.66,5.46-4.01,11.93-4.01,19.42s1.36,13.54,4.06,18.91c2.7,5.38,6.51,9.53,11.38,12.51,4.89,2.95,10.68,4.44,17.37,4.44s12.58-1.65,17.85-4.91c5.26-3.28,9.25-7.9,11.96-13.87l-8.7-3.37c-2.12,4.28-5,7.54-8.66,9.81-3.66,2.27-7.94,3.39-12.83,3.39-7.2,0-12.74-2.38-16.66-7.12-3.51-4.28-5.44-10.11-5.8-17.49h53.98c.22-8.03-.91-14.95-3.35-20.74-2.46-5.8-6.07-10.24-10.86-13.36ZM985.78,51.99c3.92-4.79,9.55-7.18,16.91-7.18s12.34,2.27,16.01,6.8c3.01,3.71,4.83,8.94,5.47,15.61h-43.99c.64-6.35,2.5-11.45,5.6-15.23Z"/>
        <path class="brandmark-color" d="M955.17,37.62c-2.41.14-4.8.63-7.16,1.47-2.37.82-4.44,2.01-6.22,3.57-1.45,1.11-2.77,2.52-4.01,4.22-.48.67-.92,1.38-1.32,2.1v-10.82h-8.37v68.52h9.32v-34.21c0-2.7.2-5.44.58-8.21.38-2.77,1.14-5.38,2.28-7.87,1.14-2.46,2.85-4.6,5.13-6.38,2.5-2.03,5.22-3.21,8.19-3.55,2.95-.33,5.67-.18,8.18.45v-8.75c-1.99-.51-4.19-.69-6.6-.54Z"/>
        <rect class="brandmark-color" x="898.46" y="38.16" width="9.32" height="68.52"/>
        <rect class="brandmark-color" x="898.46" y="14.69" width="9.32" height="10.46"/>
        <path class="brandmark-color" d="M867.55,23.63c-4.66-4.19-10.46-6.77-17.38-7.75-2.16-.29-4.42-.45-6.76-.5-2.36-.04-4.01-.06-4.99-.06h-27.71v91.36h27.71c.89,0,2.54-.03,4.95-.09,2.41-.07,4.68-.23,6.8-.49,6.92-.96,12.72-3.55,17.38-7.74,4.64-4.18,8.14-9.51,10.46-15.98,2.34-6.48,3.5-13.6,3.5-21.38s-1.16-14.92-3.5-21.39c-2.32-6.47-5.82-11.8-10.46-15.98ZM869.33,77.79c-1.52,5.09-3.93,9.33-7.22,12.71-3.26,3.39-7.57,5.54-12.9,6.47-1.43.31-3.16.5-5.17.61-2.01.09-3.88.15-5.62.15h-18.07V24.26h18.07c1.65,0,3.5.05,5.55.16,2.07.11,3.81.31,5.24.6,5.29.94,9.59,3.06,12.89,6.42,3.3,3.33,5.71,7.56,7.23,12.69,1.52,5.11,2.28,10.73,2.28,16.87s-.76,11.68-2.28,16.79Z"/>
        <path class="brandmark-color" d="M754.55,40.92c-4.77-3.1-10.55-4.66-17.31-4.66s-12.33,1.47-17.17,4.44c-4.84,2.96-8.59,7.16-11.26,12.62-2.66,5.46-4.01,11.93-4.01,19.42s1.36,13.54,4.06,18.91c2.72,5.38,6.51,9.53,11.4,12.51,4.88,2.95,10.66,4.44,17.35,4.44s12.6-1.65,17.86-4.91c5.27-3.28,9.24-7.9,11.96-13.87l-8.7-3.37c-2.1,4.28-5,7.54-8.65,9.81-3.66,2.27-7.96,3.39-12.85,3.39-7.2,0-12.74-2.38-16.66-7.12-3.51-4.28-5.44-10.11-5.8-17.49h53.98c.22-8.03-.91-14.95-3.35-20.74-2.47-5.8-6.07-10.24-10.86-13.36ZM720.58,51.99c3.92-4.79,9.55-7.18,16.91-7.18s12.36,2.27,16.02,6.8c3,3.71,4.81,8.94,5.46,15.61h-43.99c.64-6.35,2.5-11.45,5.6-15.23Z"/>
        <polygon class="brandmark-color" points="668.78 94.5 648.55 38.16 639.08 38.16 663.95 106.68 673.6 106.68 698.47 38.16 688.9 38.16 668.78 94.5"/>
        <rect class="brandmark-color" x="615.81" y="38.16" width="9.32" height="68.52"/>
        <rect class="brandmark-color" x="615.81" y="14.69" width="9.32" height="10.46"/>
        <path class="brandmark-color" d="M578.76,19.13h-9.26v19.03h-14.66v7.99h14.66v35.71c0,3.35.05,6.33.16,8.92.09,2.61.76,5.17,1.99,7.7,1.52,3.05,3.75,5.29,6.69,6.73,2.94,1.45,6.29,2.25,10.02,2.41,3.75.18,7.54-.15,11.38-.94v-8.19c-4.89.82-9.01.94-12.33.38-3.34-.54-5.75-2.23-7.27-5.08-.8-1.47-1.23-3.17-1.31-5.09-.05-1.94-.09-4.33-.09-7.21v-35.33h20.99v-7.99h-20.99v-19.03Z"/>
        <path class="brandmark-color" d="M542.64,49.96c-1.81-4.44-4.91-7.83-9.28-10.18-4.38-2.34-9.7-3.52-15.97-3.52-7.56,0-13.72,1.69-18.45,5.08-4.73,3.37-7.89,8.13-9.46,14.26l9.08,2.67c1.3-4.57,3.59-7.91,6.81-10.03,3.25-2.1,7.2-3.17,11.9-3.17,6.81,0,11.6,1.63,14.33,4.89,2.54,2.99,3.85,7.5,3.94,13.48-2.23.31-4.67.63-7.33.95-4.04.49-8.15,1.05-12.36,1.73-4.22.65-8.05,1.39-11.53,2.24-3.42.89-6.43,2.18-9.02,3.86-2.62,1.71-4.66,3.86-6.17,6.51-1.5,2.65-2.25,5.82-2.25,9.55s.87,7,2.6,10.08c1.74,3.1,4.35,5.57,7.85,7.44,3.48,1.84,7.81,2.79,12.96,2.79,6.85,0,12.74-1.54,17.63-4.64,3.47-2.18,6.29-5.04,8.45-8.6v11.33h8.3v-42.58c0-2.53-.12-5.02-.38-7.48-.25-2.45-.79-4.68-1.65-6.66ZM535.36,75.25c-.04,2.63-.33,5.06-.84,7.25-.58,3.43-1.86,6.51-3.86,9.25-1.99,2.72-4.6,4.85-7.87,6.43-3.26,1.56-7.07,2.34-11.42,2.34-3.68,0-6.63-.62-8.84-1.83-2.23-1.23-3.85-2.77-4.82-4.64-1-1.85-1.51-3.79-1.51-5.77,0-2.46.58-4.51,1.76-6.16,1.16-1.65,2.65-2.97,4.46-3.97,1.83-.98,3.72-1.76,5.65-2.3,2.89-.76,6.1-1.41,9.68-1.98,3.58-.54,7.2-1.03,10.92-1.45,2.35-.27,4.59-.54,6.73-.81,0,1.03-.02,2.24-.04,3.64Z"/>
        <path class="brandmark-color" d="M462.45,40.92c-4.77-3.1-10.55-4.66-17.31-4.66s-12.33,1.47-17.17,4.44c-4.84,2.96-8.59,7.16-11.26,12.62-2.66,5.46-4.01,11.93-4.01,19.42s1.36,13.54,4.06,18.91c2.72,5.38,6.51,9.53,11.4,12.51,4.88,2.95,10.66,4.44,17.35,4.44s12.6-1.65,17.86-4.91c5.27-3.28,9.26-7.9,11.96-13.87l-8.7-3.37c-2.1,4.28-4.98,7.54-8.65,9.81-3.66,2.27-7.94,3.39-12.85,3.39-7.2,0-12.74-2.38-16.66-7.12-3.51-4.28-5.44-10.11-5.8-17.49h53.98c.22-8.03-.91-14.95-3.35-20.74-2.45-5.8-6.07-10.24-10.86-13.36ZM428.48,51.99c3.92-4.79,9.55-7.18,16.91-7.18s12.36,2.27,16.02,6.8c3.01,3.71,4.81,8.94,5.46,15.61h-44c.64-6.35,2.5-11.45,5.6-15.23Z"/>
        <path class="brandmark-color" d="M397.88,37.62c-2.43.14-4.8.63-7.18,1.47-2.37.82-4.44,2.01-6.22,3.57-1.43,1.11-2.77,2.52-3.99,4.22-.49.68-.93,1.39-1.34,2.12v-10.84h-8.37v68.52h9.32v-34.21c0-2.7.2-5.44.58-8.21s1.14-5.38,2.28-7.87c1.14-2.46,2.85-4.6,5.15-6.38,2.48-2.03,5.22-3.21,8.18-3.55,2.95-.33,5.69-.18,8.19.45v-8.75c-1.99-.51-4.21-.69-6.6-.54Z"/>
        <path class="brandmark-color" d="M297.88,27.25c4.75-3.26,10.7-4.89,17.84-4.89,8.21,0,14.83,2.12,19.87,6.34,5.02,4.24,8.52,9.97,10.46,17.2l9.52-2.48c-2.5-9.14-7.11-16.42-13.83-21.84-6.73-5.44-15.39-8.16-26.01-8.16-9.1,0-16.77,2.01-23.04,6.05-6.25,4.04-10.99,9.62-14.21,16.79-3.21,7.14-4.8,15.39-4.8,24.74s1.6,17.58,4.8,24.74c3.23,7.14,7.96,12.74,14.21,16.79,6.27,4.02,13.94,6.05,23.04,6.05,10.62,0,19.29-2.72,26.01-8.16,6.73-5.44,11.33-12.72,13.83-21.86l-9.52-2.46c-1.94,7.18-5.44,12.91-10.46,17.17-5.04,4.24-11.66,6.36-19.87,6.36-7.14,0-13.12-1.63-17.93-4.91-4.8-3.28-8.39-7.81-10.79-13.61-2.39-5.78-3.55-12.49-3.52-20.1.09-7.61,1.32-14.34,3.72-20.14,2.39-5.82,5.95-10.37,10.68-13.61Z"/>
    </g>
</svg>