<svg id="niklasosowitz-brandmark-icon" xmlns="http://www.w3.org/2000/svg" viewBox="0 0 1080 759.38">
    <g>
        <path class="brandmark-color" d="M1054.86,0c-4.76,0-8.61,3.51-8.61,8.27-.16,216.18-12.93,739.81-1008.03-4.92C35.4,1.23,31.86,0,28.32,0H8.65C3.87,0,0,3.87,0,8.65v741.98c0,4.83,3.92,8.75,8.75,8.75h16.76c4.55,0,8.24-3.35,8.24-7.9.15-215.94,12.35-740.64,1008.11,4.61,2.79,2.09,6.28,3.29,9.76,3.29h19.73c4.78,0,8.66-3.88,8.66-8.66V7.92C1080,3.54,1076.46,0,1072.08,0h-17.22Z"/>
    </g>
</svg>