<svg class="niklasosowitz-brandmark-heavy" xmlns="http://www.w3.org/2000/svg" viewBox="0 0 1620 143.78">
    <g>
        <path class="brandmark-color" d="M1617.62,0c-.45,0-.82.33-.82.78-.02,20.47-1.22,70.04-95.43-.47-.27-.2-.6-.32-.94-.32h-1.86c-.45,0-.82.37-.82.82v70.24c0,.46.37.83.83.83h1.59c.43,0,.78-.32.78-.75.01-20.44,1.17-70.12,95.44.44.26.2.59.31.92.31h1.87c.45,0,.82-.37.82-.82V.75c0-.41-.34-.75-.75-.75h-1.63Z"/>
        <path class="brandmark-color" d="M0,140.91V2.88h20.32l67.96,102.56V2.88h20.32v138.03h-20.32L20.32,38.25v102.66H0Z"/>
        <path class="brandmark-color" d="M132.57,140.91V2.88h20.03v138.03h-20.03Z"/>
        <path class="brandmark-color" d="M176.56,140.91V2.88h20.03v64.41L254.4,2.88h24.92l-61.06,67.39,65.56,70.64h-25.69l-61.54-65.95v65.95h-20.03Z"/>
        <path class="brandmark-color" d="M294.36,140.91V2.88h20.03v119.15h62.5v18.88h-82.53Z"/>
        <path class="brandmark-color" d="M378.81,140.91L423.67,2.88h28.85l44.86,138.03h-20.8l-41.31-125.95h5.18l-40.83,125.95h-20.8ZM402.1,109.75v-18.79h72.08v18.79h-72.08Z"/>
        <path class="brandmark-color" d="M556.05,143.78c-9.91,0-18.84-1.71-26.79-5.13-7.96-3.42-14.51-8.31-19.65-14.67-5.14-6.36-8.48-13.91-10.02-22.67l20.9-3.16c2.11,8.44,6.52,15,13.23,19.7,6.71,4.7,14.54,7.05,23.48,7.05,5.56,0,10.67-.88,15.34-2.64,4.66-1.76,8.42-4.28,11.26-7.57,2.84-3.29,4.27-7.24,4.27-11.84,0-2.49-.43-4.7-1.29-6.61-.86-1.92-2.05-3.6-3.55-5.03-1.5-1.44-3.32-2.68-5.46-3.74-2.14-1.05-4.49-1.97-7.05-2.73l-35.37-10.45c-3.45-1.02-6.97-2.35-10.54-3.98-3.58-1.63-6.85-3.77-9.83-6.42-2.97-2.65-5.38-5.94-7.24-9.87-1.85-3.93-2.78-8.71-2.78-14.33,0-8.5,2.19-15.7,6.57-21.62,4.38-5.91,10.3-10.38,17.78-13.42,7.48-3.03,15.85-4.55,25.11-4.55,9.33.13,17.68,1.79,25.07,4.99,7.38,3.2,13.52,7.78,18.4,13.75,4.89,5.98,8.26,13.21,10.11,21.71l-21.47,3.64c-.96-5.18-3-9.63-6.13-13.37-3.13-3.74-6.97-6.61-11.5-8.63-4.54-2.01-9.46-3.05-14.76-3.12-5.11-.13-9.79.64-14.04,2.3-4.25,1.66-7.64,3.99-10.16,7-2.52,3-3.79,6.46-3.79,10.35s1.12,6.94,3.36,9.3c2.24,2.36,5,4.23,8.29,5.61,3.29,1.38,6.57,2.51,9.83,3.4l25.5,7.19c3.19.9,6.82,2.1,10.88,3.6,4.06,1.5,7.99,3.59,11.79,6.28,3.8,2.68,6.95,6.25,9.44,10.69,2.49,4.44,3.74,10.02,3.74,16.73s-1.41,13.08-4.22,18.36c-2.81,5.27-6.66,9.68-11.55,13.23-4.89,3.55-10.53,6.22-16.92,8-6.39,1.79-13.13,2.68-20.22,2.68Z"/>
        <path class="brandmark-color" d="M715.74,143.78c-13.8,0-25.56-3.02-35.27-9.06-9.71-6.04-17.14-14.46-22.29-25.26-5.14-10.8-7.72-23.32-7.72-37.57s2.57-26.77,7.72-37.58c5.14-10.8,12.57-19.22,22.29-25.26,9.71-6.04,21.47-9.06,35.27-9.06s25.48,3.02,35.23,9.06c9.74,6.04,17.17,14.46,22.29,25.26,5.11,10.8,7.67,23.33,7.67,37.58s-2.56,26.78-7.67,37.57c-5.11,10.8-12.54,19.22-22.29,25.26-9.75,6.04-21.49,9.06-35.23,9.06ZM715.74,124.71c9.78.13,17.91-2.03,24.39-6.47,6.49-4.44,11.36-10.64,14.62-18.59,3.26-7.96,4.89-17.21,4.89-27.75s-1.63-19.76-4.89-27.65c-3.26-7.89-8.13-14.04-14.62-18.45-6.49-4.41-14.62-6.65-24.39-6.71-9.78-.13-17.91,2.01-24.4,6.42-6.49,4.41-11.36,10.61-14.62,18.6-3.26,7.99-4.92,17.25-4.98,27.8-.06,10.54,1.53,19.76,4.79,27.65,3.26,7.89,8.16,14.04,14.71,18.45,6.55,4.41,14.71,6.65,24.49,6.71Z"/>
        <path class="brandmark-color" d="M845.33,143.78c-9.91,0-18.84-1.71-26.79-5.13-7.96-3.42-14.51-8.31-19.65-14.67-5.14-6.36-8.48-13.91-10.02-22.67l20.9-3.16c2.11,8.44,6.52,15,13.23,19.7,6.71,4.7,14.54,7.05,23.48,7.05,5.56,0,10.67-.88,15.34-2.64,4.66-1.76,8.42-4.28,11.26-7.57,2.84-3.29,4.27-7.24,4.27-11.84,0-2.49-.43-4.7-1.29-6.61-.86-1.92-2.05-3.6-3.55-5.03-1.5-1.44-3.32-2.68-5.46-3.74-2.14-1.05-4.49-1.97-7.05-2.73l-35.37-10.45c-3.45-1.02-6.97-2.35-10.54-3.98-3.58-1.63-6.85-3.77-9.83-6.42-2.97-2.65-5.38-5.94-7.24-9.87-1.85-3.93-2.78-8.71-2.78-14.33,0-8.5,2.19-15.7,6.57-21.62,4.38-5.91,10.3-10.38,17.78-13.42,7.48-3.03,15.85-4.55,25.11-4.55,9.33.13,17.68,1.79,25.07,4.99,7.38,3.2,13.52,7.78,18.4,13.75,4.89,5.98,8.26,13.21,10.11,21.71l-21.47,3.64c-.96-5.18-3-9.63-6.13-13.37-3.13-3.74-6.97-6.61-11.5-8.63-4.54-2.01-9.46-3.05-14.76-3.12-5.11-.13-9.79.64-14.04,2.3-4.25,1.66-7.64,3.99-10.16,7-2.52,3-3.79,6.46-3.79,10.35s1.12,6.94,3.36,9.3c2.24,2.36,5,4.23,8.29,5.61,3.29,1.38,6.57,2.51,9.83,3.4l25.5,7.19c3.19.9,6.82,2.1,10.88,3.6,4.06,1.5,7.99,3.59,11.79,6.28,3.8,2.68,6.95,6.25,9.44,10.69,2.49,4.44,3.74,10.02,3.74,16.73s-1.41,13.08-4.22,18.36c-2.81,5.27-6.66,9.68-11.55,13.23-4.89,3.55-10.53,6.22-16.92,8-6.39,1.79-13.13,2.68-20.22,2.68Z"/>
        <path class="brandmark-color" d="M971.47,143.78c-13.8,0-25.56-3.02-35.27-9.06-9.71-6.04-17.14-14.46-22.29-25.26-5.14-10.8-7.72-23.32-7.72-37.57s2.57-26.77,7.72-37.58c5.14-10.8,12.57-19.22,22.29-25.26,9.71-6.04,21.47-9.06,35.27-9.06s25.48,3.02,35.23,9.06c9.74,6.04,17.17,14.46,22.29,25.26,5.11,10.8,7.67,23.33,7.67,37.58s-2.56,26.78-7.67,37.57c-5.11,10.8-12.54,19.22-22.29,25.26-9.75,6.04-21.49,9.06-35.23,9.06ZM971.47,124.71c9.78.13,17.91-2.03,24.39-6.47,6.49-4.44,11.36-10.64,14.62-18.59,3.26-7.96,4.89-17.21,4.89-27.75s-1.63-19.76-4.89-27.65c-3.26-7.89-8.13-14.04-14.62-18.45-6.49-4.41-14.62-6.65-24.39-6.71-9.78-.13-17.91,2.01-24.4,6.42-6.49,4.41-11.36,10.61-14.62,18.6-3.26,7.99-4.92,17.25-4.98,27.8-.06,10.54,1.53,19.76,4.79,27.65,3.26,7.89,8.16,14.04,14.71,18.45,6.55,4.41,14.71,6.65,24.49,6.71Z"/>
        <path class="brandmark-color" d="M1074.51,140.91L1034.45,2.88h20.99l29.04,104.38,29.04-104.29,21.09-.1,29.04,104.38,29.04-104.38h21.09l-40.16,138.03h-19.94l-29.62-103.24-29.62,103.24h-19.94Z"/>
        <path class="brandmark-color" d="M1226.92,140.91V2.88h20.03v138.03h-20.03Z"/>
        <path class="brandmark-color" d="M1305.33,140.91V21.76h-45.91V2.88h111.86v18.88h-45.91v119.15h-20.03Z"/>
        <path class="brandmark-color" d="M1377.98,140.91v-3.16l70.45-115.98h-66.62V2.88h101.03v3.26l-70.07,115.79h68.82v18.98h-103.62Z"/>
    </g>
</svg>