<svg id="niklasosowitz-brandmark-full" xmlns="http://www.w3.org/2000/svg" viewBox="0 0 1620 214.89">
    <g>
        <polygon class="brandmark-color" points="550.52 153.55 549.51 153.55 468.65 39.3 456.58 39.3 456.58 175.59 469.02 175.59 469.02 61.52 470.21 61.52 550.61 175.59 562.87 175.59 562.87 39.3 550.52 39.3 550.52 153.55"/>
        <rect class="brandmark-color" x="588.89" y="73.32" width="11.8" height="102.27"/>
        <path class="brandmark-color" d="M594.84,38.84c-2.44,0-4.53.82-6.27,2.47-1.74,1.65-2.61,3.66-2.61,6.04s.87,4.31,2.61,5.99c1.74,1.68,3.83,2.52,6.27,2.52s4.52-.83,6.22-2.52c1.7-1.68,2.56-3.67,2.56-5.99s-.86-4.39-2.56-6.04c-1.7-1.65-3.78-2.47-6.22-2.47Z"/>
        <polygon class="brandmark-color" points="700.35 73.32 685.44 73.32 637.6 121.44 636.05 121.44 636.05 39.3 624.25 39.3 624.25 175.59 636.05 175.59 636.05 136.04 647.81 124.98 687.82 175.59 703.1 175.59 656.71 117.23 700.35 73.32"/>
        <rect class="brandmark-color" x="714.85" y="39.3" width="11.8" height="136.3"/>
        <path class="brandmark-color" d="M810.68,78.81c-3.66-2.5-7.59-4.26-11.8-5.31-4.21-1.04-8.27-1.55-12.17-1.55-5.18,0-10.3.74-15.37,2.24-5.06,1.5-9.64,3.92-13.72,7.27-4.08,3.35-7.28,7.81-9.6,13.36l11.34,4.12c1.83-4.39,5.07-8.2,9.7-11.43,4.63-3.24,10.65-4.85,18.02-4.85,7.74,0,13.68,2,17.84,5.99,4.15,3.99,6.22,9.5,6.22,16.51v2.38c0,2.56-1.04,4.43-3.11,5.58-2.07,1.16-5.09,2-9.06,2.52-3.97.51-8.82,1.14-14.54,1.87-5.8.68-11.08,1.66-15.87,2.97-4.79,1.32-8.95,3.08-12.49,5.31-3.53,2.23-6.25,5.04-8.14,8.46-1.89,3.42-2.84,7.65-2.84,12.71,0,6.59,1.51,12.18,4.53,16.78,3.02,4.61,7.09,8.11,12.21,10.52,5.12,2.41,10.76,3.61,16.92,3.61,5.73,0,10.7-.91,14.91-2.74,4.21-1.83,7.72-4.16,10.52-7,2.8-2.84,4.88-5.75,6.22-8.74h.73v16.19h11.89v-69.34c0-6.83-1.14-12.49-3.43-16.97-2.29-4.48-5.26-7.97-8.92-10.47ZM811.14,136.35c0,5.55-1.25,10.67-3.75,15.37-2.51,4.7-6.05,8.43-10.66,11.2-4.61,2.78-10.05,4.16-16.33,4.16-6.77,0-12.36-1.7-16.79-5.12-4.42-3.42-6.63-8.2-6.63-14.36,0-4.15,1.09-7.54,3.25-10.15,2.16-2.62,5.31-4.7,9.42-6.22,4.12-1.52,9.04-2.65,14.77-3.38,2.07-.24,4.47-.55,7.18-.92,2.71-.37,5.4-.79,8.05-1.28,2.65-.49,5-1.06,7.04-1.74,2.05-.68,3.52-1.43,4.44-2.29v14.73Z"/>
        <path class="brandmark-color" d="M890.95,121.07l-15.46-3.75c-6.35-1.59-11.02-3.76-14.04-6.54-3.02-2.78-4.53-6.32-4.53-10.66,0-5.18,2.23-9.43,6.68-12.76,4.45-3.33,10.12-4.98,17.01-4.98s12.18,1.6,15.87,4.8c3.69,3.2,6.32,7.09,7.91,11.66l10.79-2.93c-2.43-7.37-6.46-13.22-12.07-17.52-5.62-4.3-13.11-6.45-22.5-6.45-6.83,0-12.93,1.22-18.3,3.66-5.36,2.44-9.59,5.82-12.67,10.16-3.08,4.33-4.62,9.3-4.62,14.91,0,6.83,2.14,12.53,6.4,17.11,4.26,4.57,10.85,7.92,19.76,10.06l16.65,4.02c11.16,2.74,16.74,8.33,16.74,16.74,0,5.25-2.38,9.64-7.13,13.17-4.76,3.53-11.03,5.31-18.84,5.31-7.01,0-12.68-1.55-17.01-4.66-4.33-3.11-7.19-7.68-8.6-13.72l-11.34,2.74c1.83,8.47,5.98,14.99,12.44,19.53,6.46,4.54,14.69,6.81,24.7,6.81,7.5,0,14.09-1.28,19.76-3.84,5.67-2.56,10.11-6.1,13.31-10.61,3.2-4.52,4.8-9.64,4.8-15.37,0-6.83-2.15-12.49-6.45-16.97-4.3-4.48-10.71-7.79-19.26-9.92Z"/>
        <path class="brandmark-color" d="M1072.89,46.07c-8.84-5.73-18.99-8.6-30.46-8.6s-21.63,2.87-30.51,8.6c-8.87,5.73-15.84,13.86-20.9,24.38-5.06,10.52-7.59,22.88-7.59,37.09s2.52,26.47,7.55,36.96c5.03,10.48,12,18.6,20.9,24.33,8.91,5.73,19.09,8.6,30.55,8.6s21.62-2.87,30.46-8.6c8.84-5.73,15.78-13.85,20.81-24.33,5.03-10.49,7.55-22.81,7.55-36.96s-2.52-26.57-7.55-37.09c-5.03-10.52-11.97-18.65-20.81-24.38ZM1083.13,138.86c-4.08,8.69-9.66,15.36-16.74,19.99-7.08,4.63-15.06,6.95-23.97,6.95s-17-2.32-24.1-6.95c-7.1-4.63-12.7-11.31-16.78-20.03-4.08-8.72-6.13-19.15-6.13-31.29s2.06-22.74,6.17-31.47c4.12-8.72,9.73-15.4,16.83-20.03,7.1-4.63,15.11-6.95,24.01-6.95s16.89,2.32,23.97,6.95c7.08,4.63,12.66,11.31,16.74,20.03,4.08,8.72,6.13,19.21,6.13,31.47s-2.05,22.64-6.13,31.33Z"/>
        <path class="brandmark-color" d="M1165.51,121.07l-15.46-3.75c-6.35-1.59-11.02-3.76-14.04-6.54-3.02-2.78-4.53-6.32-4.53-10.66,0-5.18,2.23-9.43,6.68-12.76,4.45-3.33,10.12-4.98,17.02-4.98s12.18,1.6,15.87,4.8c3.69,3.2,6.32,7.09,7.91,11.66l10.79-2.93c-2.43-7.37-6.46-13.22-12.07-17.52-5.62-4.3-13.12-6.45-22.5-6.45-6.83,0-12.93,1.22-18.3,3.66-5.36,2.44-9.59,5.82-12.67,10.16-3.08,4.33-4.62,9.3-4.62,14.91,0,6.83,2.14,12.53,6.4,17.11,4.26,4.57,10.85,7.92,19.76,10.06l16.65,4.02c11.16,2.74,16.74,8.33,16.74,16.74,0,5.25-2.38,9.64-7.13,13.17-4.76,3.53-11.04,5.31-18.84,5.31-7.01,0-12.68-1.55-17.01-4.66-4.33-3.11-7.19-7.68-8.6-13.72l-11.34,2.74c1.83,8.47,5.98,14.99,12.44,19.53,6.46,4.54,14.69,6.81,24.7,6.81,7.5,0,14.09-1.28,19.76-3.84s10.11-6.1,13.31-10.61c3.2-4.52,4.8-9.64,4.8-15.37,0-6.83-2.15-12.49-6.45-16.97-4.3-4.48-10.71-7.79-19.25-9.92Z"/>
        <path class="brandmark-color" d="M1272.53,78.68c-6.73-4.48-14.53-6.72-23.37-6.72s-16.65,2.24-23.42,6.72c-6.77,4.48-12.06,10.7-15.87,18.66-3.81,7.96-5.72,17.19-5.72,27.67s1.91,19.44,5.72,27.4c3.81,7.96,9.1,14.18,15.87,18.66,6.77,4.48,14.58,6.72,23.42,6.72s16.65-2.24,23.42-6.72c6.77-4.48,12.06-10.7,15.87-18.66,3.81-7.96,5.72-17.09,5.72-27.4s-1.92-19.71-5.76-27.67c-3.84-7.96-9.14-14.18-15.87-18.66ZM1278.43,145.95c-2.56,6.4-6.3,11.52-11.21,15.32-4.91,3.81-10.93,5.72-18.07,5.72s-13.08-1.91-18.02-5.72c-4.94-3.81-8.69-8.92-11.25-15.32-2.56-6.4-3.84-13.39-3.84-20.95s1.29-14.72,3.89-21.08c2.6-6.37,6.35-11.49,11.25-15.37,4.91-3.88,10.9-5.81,17.97-5.81s13.08,1.92,18.02,5.76c4.94,3.84,8.69,8.97,11.25,15.37,2.56,6.4,3.84,13.45,3.84,21.13s-1.28,14.54-3.84,20.95Z"/>
        <polygon class="brandmark-color" points="1399.96 157.57 1399.05 157.57 1375.26 73.32 1362.64 73.32 1338.49 157.66 1337.58 157.66 1313.34 73.32 1300.8 73.32 1331.72 175.59 1343.89 175.59 1368.22 91.89 1369.41 91.89 1393.74 175.59 1405.91 175.59 1436.73 73.32 1424.29 73.32 1399.96 157.57"/>
        <path class="brandmark-color" d="M1458.09,38.84c-2.43,0-4.53.82-6.27,2.47-1.74,1.65-2.61,3.66-2.61,6.04s.87,4.31,2.61,5.99,3.83,2.52,6.27,2.52,4.52-.83,6.22-2.52c1.7-1.68,2.56-3.67,2.56-5.99s-.86-4.39-2.56-6.04c-1.7-1.65-3.78-2.47-6.22-2.47Z"/>
        <rect class="brandmark-color" x="1452.15" y="73.32" width="11.8" height="102.27"/>
        <path class="brandmark-color" d="M1524.87,165.3c-1.13.15-2.24.23-3.34.23-4.88,0-8.69-1.38-11.43-4.16-2.74-2.78-4.12-6.94-4.12-12.49v-65.22h21.68v-10.34h-21.68v-24.33h-11.8v24.33h-15.28v10.34h15.28v68.06c0,7.56,2.5,13.67,7.5,18.34,5,4.66,11.29,7,18.84,7,1.95,0,3.84-.15,5.67-.46,1.83-.31,3.44-.73,4.85-1.28l-2.56-10.7c-1.28.31-2.48.54-3.61.69Z"/>
        <polygon class="brandmark-color" points="1559.99 164.43 1559.99 163.52 1617.9 83.21 1617.9 73.32 1546.18 73.32 1546.18 84.58 1602.71 84.58 1602.71 85.49 1543.71 166.26 1543.71 175.59 1620 175.59 1620 164.43 1559.99 164.43"/>
        <path class="brandmark-color" d="M298.5,0c-1.35,0-2.44.99-2.44,2.34-.05,61.17-3.66,209.35-285.25-1.39C10.02.35,9.01,0,8.01,0H2.45C1.1,0,0,1.1,0,2.45v209.96c0,1.37,1.11,2.48,2.48,2.48h4.74c1.29,0,2.33-.95,2.33-2.24.04-61.11,3.49-209.58,285.27,1.3.79.59,1.78.93,2.76.93h5.58c1.35,0,2.45-1.1,2.45-2.45V2.24C305.61,1,304.61,0,303.37,0h-4.87Z"/>
    </g>
</svg>